<?xml version="1.0" standalone="no"?>
<!DOCTYPE svg PUBLIC "-//W3C//DTD SVG 20010904//EN"
 "http://www.w3.org/TR/2001/REC-SVG-20010904/DTD/svg10.dtd">
<svg version="1.0" xmlns="http://www.w3.org/2000/svg"
 width="900.000000pt" height="900.000000pt" viewBox="0 0 900.000000 900.000000"
 preserveAspectRatio="xMidYMid meet">

<g transform="translate(0.000000,900.000000) scale(0.100000,-0.100000)"
fill="#000000" stroke="none">
<path d="M3667 8809 c-277 -24 -688 -166 -987 -339 -62 -36 -71 -38 -180 -45
-414 -24 -746 -113 -816 -220 -30 -46 -46 -204 -40 -395 7 -246 41 -444 102
-596 l24 -62 -16 -93 c-25 -149 -30 -449 -9 -605 42 -315 145 -586 314 -824
83 -118 258 -300 385 -402 55 -44 102 -84 103 -87 2 -3 -18 -14 -43 -25 -139
-57 -240 -204 -260 -376 -4 -41 -11 -60 -20 -60 -8 0 -58 -14 -111 -31 -341
-109 -571 -311 -647 -568 -24 -80 -22 -256 4 -357 59 -229 217 -445 478 -651
l22 -18 -16 -105 c-25 -159 -22 -469 5 -625 59 -331 146 -528 307 -688 37 -37
66 -69 63 -71 -2 -2 -71 -31 -154 -64 -232 -93 -396 -166 -562 -252 -175 -90
-390 -220 -441 -267 -32 -31 -34 -34 -20 -55 27 -42 102 -71 187 -72 65 -1 81
-5 101 -24 33 -30 80 -43 181 -49 80 -5 137 4 207 33 7 4 12 -2 12 -13 0 -31
41 -61 110 -80 81 -22 387 -25 494 -5 196 37 376 145 654 395 l117 104 135
-10 c225 -16 687 21 920 73 72 16 86 16 95 5 6 -8 39 -64 73 -124 123 -211
377 -523 462 -566 135 -69 429 -54 550 27 26 18 65 68 65 85 0 1 25 -5 55 -13
71 -18 133 -18 228 2 105 21 165 49 207 95 32 36 36 38 65 27 19 -6 72 -9 133
-5 166 8 277 64 277 140 0 80 -281 340 -588 543 -69 46 -120 84 -114 84 35 0
512 55 656 75 650 93 1147 258 1605 532 177 106 280 183 355 263 68 74 88 111
90 163 1 34 -5 44 -39 74 -57 49 -217 146 -321 194 -232 108 -571 184 -914
205 l-95 6 -190 -85 c-459 -205 -936 -441 -1324 -657 -129 -71 -237 -128 -239
-125 -2 2 1 32 8 67 22 111 25 495 5 670 -15 138 -78 537 -91 581 -5 16 2 17
94 11 60 -4 145 -2 213 6 515 57 1060 364 1599 900 305 303 510 635 510 826 0
105 -40 154 -156 194 -118 41 -233 53 -499 54 -331 0 -514 -20 -790 -90 -122
-31 -283 -76 -323 -92 -8 -3 24 45 70 106 84 111 163 249 212 372 85 209 131
536 114 812 l-8 137 69 90 c141 188 266 447 278 575 5 54 3 69 -15 98 -71 114
-454 328 -787 440 -119 39 -120 40 -205 122 -509 490 -1294 767 -1993 705z
m403 -50 c776 -72 1497 -484 1853 -1059 62 -101 175 -339 225 -476 137 -372
166 -679 102 -1064 -49 -293 -154 -518 -356 -760 -64 -77 -78 -89 -133 -109
-51 -18 -67 -20 -98 -12 -95 27 -261 0 -372 -60 -121 -64 -227 -174 -278 -287
-14 -31 -27 -58 -28 -59 0 -1 -37 32 -81 75 -91 89 -168 134 -280 162 -261 67
-530 -39 -668 -263 -24 -40 -52 -94 -62 -121 l-18 -49 -100 6 c-125 8 -243 36
-344 82 -68 32 -80 42 -107 87 -42 72 -158 186 -235 231 -115 67 -175 81 -338
82 l-144 1 -81 60 c-107 78 -327 297 -406 404 -132 179 -224 374 -281 594
-164 639 20 1430 433 1862 225 236 511 414 882 549 326 118 592 154 915 124z
m3323 -3293 c125 -23 197 -50 231 -87 27 -31 28 -35 23 -108 -5 -85 -29 -149
-110 -292 -162 -288 -522 -657 -908 -931 -333 -237 -650 -378 -969 -429 -114
-19 -323 -17 -395 3 -249 69 -427 213 -497 403 -29 78 -31 257 -4 354 41 151
133 289 291 439 211 199 481 347 870 477 322 108 564 160 850 185 150 13 513
4 618 -14z m-1897 -287 c-145 -73 -279 -157 -375 -233 l-72 -58 27 54 c43 85
153 188 254 236 90 43 152 59 235 60 l50 1 -119 -60z m-2592 -79 c116 -29 190
-73 281 -165 64 -63 89 -98 122 -165 23 -47 47 -110 54 -140 14 -63 30 -85 54
-76 14 5 15 14 10 48 -4 24 -14 60 -21 81 -13 36 -13 39 4 32 112 -46 244 -77
383 -90 l66 -6 -5 -44 c-4 -36 -1 -46 13 -51 22 -9 45 19 45 55 0 49 59 195
106 264 194 284 609 316 855 67 80 -81 89 -102 60 -139 -184 -227 -236 -355
-235 -576 1 -145 19 -210 88 -314 77 -116 209 -217 360 -276 l81 -31 27 -150
c72 -391 82 -482 83 -754 0 -342 -21 -473 -100 -630 -110 -217 -363 -463 -598
-582 -241 -121 -583 -184 -1052 -195 -415 -9 -642 32 -930 171 -350 169 -518
371 -609 731 -39 156 -56 307 -56 498 1 367 77 671 261 1038 58 116 203 376
220 393 5 5 15 4 24 -4 13 -11 19 -11 32 3 15 14 10 22 -53 90 -179 191 -235
488 -135 703 36 77 92 134 172 175 118 59 259 73 393 39z m-664 -502 c0 -107
82 -319 159 -411 l39 -47 -79 -136 c-191 -327 -296 -569 -369 -852 l-11 -43
-60 52 c-282 244 -417 484 -421 749 -2 111 15 180 70 285 86 164 300 322 551
405 114 38 121 38 121 -2z"/>
<path d="M3064 8035 c-4 -9 11 -34 36 -62 l42 -48 -56 -7 c-236 -30 -391 -338
-317 -630 38 -146 115 -254 219 -305 76 -37 174 -39 247 -3 176 85 278 336
234 574 -16 88 -45 145 -107 211 -152 162 -273 285 -283 285 -5 0 -12 -7 -15
-15z m279 -323 c41 -42 77 -124 77 -173 0 -48 -71 -115 -131 -124 -104 -15
-190 59 -192 165 -1 93 71 169 163 170 40 0 51 -5 83 -38z"/>
<path d="M4339 7669 c-37 -5 -100 -21 -140 -35 -294 -106 -417 -380 -287 -639
115 -227 431 -380 715 -345 311 39 505 234 491 495 -9 179 -135 348 -333 446
-137 67 -305 97 -446 78z"/>
<path d="M5512 7468 c-35 -50 -123 -142 -201 -212 -67 -61 -80 -102 -88 -276
-9 -203 34 -388 115 -495 139 -184 324 -90 404 203 31 113 31 373 0 485 -30
109 -77 200 -127 246 -34 32 -42 44 -38 65 8 43 -28 33 -65 -16z m-62 -210
c112 -77 80 -264 -50 -293 -36 -8 -91 9 -115 35 -17 19 -17 25 -3 98 15 74 19
81 69 130 30 28 57 52 60 52 3 0 21 -10 39 -22z"/>
<path d="M3176 6774 c-9 -8 -16 -19 -16 -24 0 -9 28 -40 36 -40 17 0 44 23 44
38 0 38 -37 53 -64 26z"/>
<path d="M2658 6729 c-30 -17 -16 -69 18 -69 14 0 44 27 44 40 0 10 -29 40
-38 40 -4 0 -15 -5 -24 -11z"/>
<path d="M3320 6506 c0 -20 89 -96 200 -170 248 -166 561 -282 895 -332 158
-24 479 -24 614 -1 100 17 122 27 103 50 -10 11 -24 11 -89 0 -124 -20 -363
-27 -503 -14 -426 41 -826 194 -1120 430 -63 51 -100 64 -100 37z"/>
<path d="M5298 6289 c-30 -17 -16 -69 18 -69 14 0 44 27 44 40 0 10 -29 40
-38 40 -4 0 -15 -5 -24 -11z"/>
<path d="M2937 6219 c-22 -13 -22 -58 -1 -66 39 -15 73 46 37 65 -12 7 -25 7
-36 1z"/>
<path d="M5700 6145 c-26 -31 13 -82 44 -56 19 16 21 42 4 59 -16 16 -33 15
-48 -3z"/>
<path d="M5346 5814 c-9 -8 -16 -19 -16 -24 0 -9 28 -40 36 -40 15 0 44 23 44
35 0 15 -26 45 -40 45 -5 0 -16 -7 -24 -16z"/>
<path d="M3380 3536 c-210 -44 -476 -204 -685 -411 -109 -108 -191 -217 -214
-284 -68 -203 222 -549 524 -626 32 -8 74 -15 92 -15 18 0 33 -2 33 -5 0 -13
-36 -74 -77 -133 -25 -35 -42 -69 -39 -77 6 -17 102 -47 240 -77 134 -28 387
-31 521 -4 123 24 219 53 245 74 l22 18 -41 48 c-35 41 -91 133 -91 151 0 3
15 5 33 5 113 1 278 77 388 178 154 142 229 312 192 434 -42 145 -287 399
-538 560 -222 143 -433 200 -605 164z m288 -68 c93 -28 145 -56 138 -73 -3 -8
-13 -65 -23 -127 -27 -172 -24 -544 6 -738 42 -278 76 -396 137 -475 19 -25
34 -47 34 -49 0 -7 -154 -45 -230 -56 -107 -16 -329 -13 -435 5 -80 14 -189
41 -207 51 -3 2 13 33 36 68 24 35 58 103 75 152 118 322 131 696 40 1102 -12
52 -17 97 -13 101 17 15 99 43 164 57 81 17 188 10 278 -18z m-489 -105 c70
-265 89 -610 46 -843 -22 -117 -66 -261 -83 -267 -33 -13 -160 19 -252 64 -81
40 -109 61 -191 142 -130 130 -192 253 -175 345 18 93 200 303 378 436 81 60
243 160 260 160 4 0 12 -17 17 -37z m754 -18 c101 -61 209 -146 311 -244 111
-108 174 -186 212 -262 37 -73 31 -149 -21 -247 -96 -183 -285 -315 -482 -337
l-58 -7 -18 80 c-54 241 -78 563 -58 785 14 168 31 267 45 267 6 0 37 -16 69
-35z"/>
</g>
</svg>
